<svg width="331" height="150" viewBox="0 0 331 150" fill="none" xmlns="http://www.w3.org/2000/svg">
<path d="M204.039 7.19653L192.585 -12.6426L204.039 -32.4817H226.948L238.402 -12.6426L226.948 7.19653L204.039 7.19653Z" stroke="white" stroke-opacity="0.2"/>
<path d="M127.336 7.19653L115.882 -12.6426L127.336 -32.4817H150.244L161.699 -12.6426L150.244 7.19653L127.336 7.19653Z" stroke="white" stroke-opacity="0.2"/>
<path d="M127.336 51.3254L115.882 31.4863L127.336 11.6472H150.244L161.699 31.4863L150.244 51.3254H127.336Z" stroke="white" stroke-opacity="0.2"/>
<path d="M165.883 29.1516L154.429 9.3125L165.883 -10.5266H188.791L200.245 9.3125L188.791 29.1516H165.883Z" stroke="white" stroke-opacity="0.2"/>
<path d="M165.883 72.7688L154.429 52.9297L165.883 33.0906H188.791L200.245 52.9297L188.791 72.7688H165.883Z" stroke="white" stroke-opacity="0.2"/>
<path d="M204.039 51.3254L192.585 31.4863L204.039 11.6472H226.948L238.402 31.4863L226.948 51.3254H204.039Z" stroke="white" stroke-opacity="0.2"/>
<path d="M268.902 -12.6426L280.645 -32.9817H304.131L315.874 -12.6426L304.131 7.69653L280.645 7.69653L268.902 -12.6426Z" fill="url(#paint0_linear_735_2870)" fill-opacity="0.15"/>
<path d="M280.934 7.19653L269.48 -12.6426L280.934 -32.4817H303.842L315.296 -12.6426L303.842 7.19653L280.934 7.19653Z" stroke="white" stroke-opacity="0.2"/>
<path d="M319.09 28.8586L307.636 9.01953L319.09 -10.8196H341.998L353.452 9.01953L341.998 28.8586H319.09Z" stroke="white" stroke-opacity="0.2"/>
<path d="M242.387 28.8586L230.933 9.01953L242.387 -10.8196H265.295L276.749 9.01953L265.295 28.8586H242.387Z" stroke="white" stroke-opacity="0.2"/>
<path d="M242.387 72.9856L230.933 53.1465L242.387 33.3074H265.295L276.749 53.1465L265.295 72.9856H242.387Z" stroke="white" stroke-opacity="0.2"/>
<path d="M280.934 50.8137L269.48 30.9746L280.934 11.1355H303.842L315.296 30.9746L303.842 50.8137H280.934Z" stroke="white" stroke-opacity="0.2"/>
<path d="M280.934 94.4309L269.48 74.5918L280.934 54.7527H303.842L315.296 74.5918L303.842 94.4309H280.934Z" stroke="white" stroke-opacity="0.2"/>
<path d="M319.09 72.9856L307.636 53.1465L319.09 33.3074H341.998L353.452 53.1465L341.998 72.9856H319.09Z" stroke="white" stroke-opacity="0.2"/>
<path d="M77.3477 54.0605L89.0904 33.7214H112.576L124.319 54.0605L112.576 74.3997H89.0904L77.3477 54.0605Z" fill="url(#paint1_linear_735_2870)" fill-opacity="0.15"/>
<path d="M89.3791 73.8997L77.925 54.0605L89.3791 34.2214H112.287L123.741 54.0605L112.287 73.8997H89.3791Z" stroke="white" stroke-opacity="0.2"/>
<path d="M127.535 95.5618L116.081 75.7227L127.535 55.8835H150.444L161.898 75.7227L150.444 95.5618H127.535Z" stroke="white" stroke-opacity="0.2"/>
<path d="M50.8322 95.5618L39.3781 75.7227L50.8322 55.8835H73.7405L85.1946 75.7227L73.7405 95.5618H50.8322Z" stroke="white" stroke-opacity="0.2"/>
<path d="M50.8322 139.689L39.3781 119.85L50.8322 100.01H73.7405L85.1946 119.85L73.7405 139.689H50.8322Z" stroke="white" stroke-opacity="0.2"/>
<path d="M89.3791 117.517L77.925 97.6777L89.3791 77.8386H112.287L123.741 97.6777L112.287 117.517H89.3791Z" stroke="white" stroke-opacity="0.2"/>
<path d="M89.3791 161.134L77.925 141.295L89.3791 121.456H112.287L123.741 141.295L112.287 161.134H89.3791Z" stroke="white" stroke-opacity="0.2"/>
<path d="M127.535 139.689L116.081 119.85L127.535 100.01H150.444L161.898 119.85L150.444 139.689H127.535Z" stroke="white" stroke-opacity="0.2"/>
<path d="M204.235 95.8547L192.78 76.0156L204.235 56.1765H227.143L238.597 76.0156L227.143 95.8547H204.235Z" stroke="white" stroke-opacity="0.2"/>
<path d="M242.391 117.517L230.937 97.6777L242.391 77.8386H265.299L276.753 97.6777L265.299 117.517H242.391Z" stroke="white" stroke-opacity="0.2"/>
<path d="M153.656 97.6777L165.399 77.3386H188.885L200.627 97.6777L188.885 118.017H165.399L153.656 97.6777Z" fill="url(#paint2_linear_735_2870)" fill-opacity="0.15"/>
<path d="M165.688 117.517L154.234 97.6777L165.688 77.8386H188.596L200.05 97.6777L188.596 117.517H165.688Z" stroke="white" stroke-opacity="0.2"/>
<path d="M165.688 161.644L154.234 141.805L165.688 121.966H188.596L200.05 141.805L188.596 161.644H165.688Z" stroke="white" stroke-opacity="0.2"/>
<path d="M204.235 139.472L192.78 119.633L204.235 99.7937H227.143L238.597 119.633L227.143 139.472H204.235Z" stroke="white" stroke-opacity="0.2"/>
<path d="M192.203 163.25L203.946 142.911H227.431L239.174 163.25L227.431 183.589H203.946L192.203 163.25Z" fill="url(#paint3_linear_735_2870)" fill-opacity="0.15"/>
<path d="M204.235 183.089L192.78 163.25L204.235 143.411H227.143L238.597 163.25L227.143 183.089H204.235Z" stroke="white" stroke-opacity="0.2"/>
<path d="M230.359 141.805L242.102 121.466H265.588L277.331 141.805L265.588 162.144H242.102L230.359 141.805Z" fill="url(#paint4_linear_735_2870)" fill-opacity="0.15"/>
<path d="M242.391 161.644L230.937 141.805L242.391 121.966H265.299L276.753 141.805L265.299 161.644H242.391Z" stroke="white" stroke-opacity="0.2"/>
<path d="M127.531 184.517L116.077 164.678L127.531 144.839H150.44L161.894 164.678L150.44 184.517H127.531Z" stroke="white" stroke-opacity="0.2"/>
<path d="M307.453 98.1895L319.196 77.8503H342.681L354.424 98.1895L342.681 118.529H319.196L307.453 98.1895Z" fill="url(#paint5_linear_735_2870)" fill-opacity="0.15"/>
<path d="M319.485 118.029L308.03 98.1895L319.485 78.3503H342.393L353.847 98.1895L342.393 118.029H319.485Z" stroke="white" stroke-opacity="0.2"/>
<path d="M268.906 119.85L280.649 99.5105H304.135L315.877 119.85L304.135 140.189H280.649L268.906 119.85Z" fill="url(#paint6_linear_735_2870)" fill-opacity="0.15"/>
<path d="M280.938 139.689L269.484 119.85L280.938 100.01H303.846L315.3 119.85L303.846 139.689H280.938Z" stroke="white" stroke-opacity="0.2"/>
<path d="M268.906 163.979L280.649 143.639H304.135L315.877 163.979L304.135 184.318H280.649L268.906 163.979Z" fill="url(#paint7_linear_735_2870)" fill-opacity="0.15"/>
<path d="M280.938 183.818L269.484 163.979L280.938 144.139H303.846L315.3 163.979L303.846 183.818H280.938Z" stroke="white" stroke-opacity="0.2"/>
<path d="M319.485 161.644L308.03 141.805L319.485 121.966H342.393L353.847 141.805L342.393 161.644H319.485Z" stroke="white" stroke-opacity="0.2"/>
<path d="M12.4807 29.3704L1.02657 9.53125L12.4807 -10.3079H35.3889L46.843 9.53125L35.3889 29.3704H12.4807Z" stroke="white" stroke-opacity="0.2"/>
<path d="M51.0276 7.19653L39.5734 -12.6426L51.0276 -32.4817H73.9358L85.3899 -12.6426L73.9358 7.19653L51.0276 7.19653Z" stroke="white" stroke-opacity="0.2"/>
<path d="M51.0276 50.8137L39.5734 30.9746L51.0276 11.1355H73.9358L85.3899 30.9746L73.9358 50.8137H51.0276Z" stroke="white" stroke-opacity="0.2"/>
<path d="M89.1838 29.3704L77.7297 9.53125L89.1838 -10.3079H112.092L123.546 9.53125L112.092 29.3704H89.1838Z" stroke="white" stroke-opacity="0.2"/>
<defs>
<linearGradient id="paint0_linear_735_2870" x1="292.388" y1="-32.9817" x2="292.388" y2="7.69653" gradientUnits="userSpaceOnUse">
<stop stop-color="#E1DCC7"/>
<stop offset="0.47" stop-color="#E6E6E6"/>
<stop offset="1" stop-color="white"/>
</linearGradient>
<linearGradient id="paint1_linear_735_2870" x1="100.833" y1="33.7214" x2="100.833" y2="74.3997" gradientUnits="userSpaceOnUse">
<stop stop-color="#E1DCC7"/>
<stop offset="0.47" stop-color="#E6E6E6"/>
<stop offset="1" stop-color="white"/>
</linearGradient>
<linearGradient id="paint2_linear_735_2870" x1="177.142" y1="77.3386" x2="177.142" y2="118.017" gradientUnits="userSpaceOnUse">
<stop stop-color="#E1DCC7"/>
<stop offset="0.47" stop-color="#E6E6E6"/>
<stop offset="1" stop-color="white"/>
</linearGradient>
<linearGradient id="paint3_linear_735_2870" x1="215.689" y1="142.911" x2="215.689" y2="183.589" gradientUnits="userSpaceOnUse">
<stop stop-color="#E1DCC7"/>
<stop offset="0.47" stop-color="#E6E6E6"/>
<stop offset="1" stop-color="white"/>
</linearGradient>
<linearGradient id="paint4_linear_735_2870" x1="253.845" y1="121.466" x2="253.845" y2="162.144" gradientUnits="userSpaceOnUse">
<stop stop-color="#E1DCC7"/>
<stop offset="0.47" stop-color="#E6E6E6"/>
<stop offset="1" stop-color="white"/>
</linearGradient>
<linearGradient id="paint5_linear_735_2870" x1="330.939" y1="77.8503" x2="330.939" y2="118.529" gradientUnits="userSpaceOnUse">
<stop stop-color="#E1DCC7"/>
<stop offset="0.47" stop-color="#E6E6E6"/>
<stop offset="1" stop-color="white"/>
</linearGradient>
<linearGradient id="paint6_linear_735_2870" x1="292.392" y1="99.5105" x2="292.392" y2="140.189" gradientUnits="userSpaceOnUse">
<stop stop-color="#E1DCC7"/>
<stop offset="0.47" stop-color="#E6E6E6"/>
<stop offset="1" stop-color="white"/>
</linearGradient>
<linearGradient id="paint7_linear_735_2870" x1="292.392" y1="143.639" x2="292.392" y2="184.318" gradientUnits="userSpaceOnUse">
<stop stop-color="#E1DCC7"/>
<stop offset="0.47" stop-color="#E6E6E6"/>
<stop offset="1" stop-color="white"/>
</linearGradient>
</defs>
</svg>
