<svg width="328" height="196" viewBox="0 0 328 196" fill="none" xmlns="http://www.w3.org/2000/svg">
<path d="M38.684 157.948L38.9287 161.598H38.684C38.3577 160.505 37.8918 159.718 37.2869 159.238C36.6817 158.758 35.9555 158.518 35.1082 158.518C34.3977 158.518 33.7557 158.7 33.1821 159.064C32.6085 159.423 32.1559 159.998 31.8244 160.79C31.4981 161.582 31.3349 162.566 31.3349 163.744C31.3349 164.715 31.4902 165.557 31.8007 166.27C32.1112 166.982 32.5769 167.529 33.1979 167.908C33.8241 168.288 34.5372 168.479 35.3371 168.479C36.0317 168.479 36.6449 168.33 37.1764 168.035C37.7079 167.734 38.2923 167.14 38.9287 166.253L39.1734 166.412C38.637 167.367 38.0102 168.067 37.2948 168.51C36.579 168.953 35.7292 169.175 34.7451 169.175C32.9716 169.175 31.5981 168.515 30.6245 167.195C29.8983 166.214 29.5352 165.058 29.5352 163.727C29.5352 162.656 29.7746 161.672 30.2535 160.775C30.7324 159.877 31.3902 159.182 32.227 158.691C33.0689 158.195 33.9873 157.948 34.9819 157.948C35.7555 157.948 36.5186 158.137 37.2711 158.518C37.4921 158.634 37.65 158.691 37.7447 158.691C37.8867 158.691 38.0102 158.641 38.116 158.541C38.2527 158.399 38.3497 158.201 38.4077 157.948H38.684ZM55.5295 158.486V158.193H59.3183V158.486H58.9156C58.4946 158.486 58.1713 158.663 57.9449 159.017C57.8347 159.18 57.7789 159.56 57.7789 160.157V164.512C57.7789 165.588 57.6716 166.425 57.4555 167.021C57.2454 167.613 56.8265 168.122 56.2004 168.549C55.5795 168.972 54.7322 169.183 53.6586 169.183C52.4902 169.183 51.6032 168.98 50.9985 168.574C50.393 168.167 49.9645 167.621 49.7118 166.934C49.5435 166.465 49.459 165.583 49.459 164.29V160.093C49.459 159.434 49.3671 159 49.1827 158.795C49.0041 158.589 48.7116 158.486 48.3067 158.486H47.9041V158.193H52.5299V158.486H52.1191C51.6775 158.486 51.3615 158.626 51.1719 158.905C51.0404 159.095 50.975 159.491 50.975 160.093V164.772C50.975 165.19 51.0117 165.667 51.0852 166.206C51.1645 166.744 51.3034 167.164 51.5033 167.465C51.7039 167.766 51.9905 168.014 52.3638 168.209C52.743 168.404 53.2059 168.502 53.7534 168.502C54.453 168.502 55.0798 168.349 55.6324 168.043C56.185 167.737 56.5612 167.346 56.7611 166.871C56.9661 166.39 57.069 165.58 57.069 164.44V160.093C57.069 159.423 56.9948 159.003 56.8478 158.834C56.6428 158.602 56.3371 158.486 55.9322 158.486H55.5295ZM74.9954 157.948V161.661H74.7037C74.6089 160.948 74.4377 160.381 74.1901 159.959C73.9483 159.536 73.6007 159.201 73.1488 158.953C72.6961 158.705 72.2273 158.581 71.743 158.581C71.1963 158.581 70.7437 158.75 70.3858 159.087C70.0279 159.42 69.8486 159.8 69.8486 160.228C69.8486 160.555 69.9618 160.853 70.1881 161.122C70.5144 161.518 71.2911 162.046 72.5168 162.706C73.5169 163.245 74.1981 163.659 74.5611 163.949C74.93 164.234 75.2115 164.572 75.4062 164.963C75.6061 165.353 75.706 165.762 75.706 166.19C75.706 167.003 75.3901 167.705 74.7588 168.297C74.1327 168.883 73.3244 169.175 72.3353 169.175C72.0252 169.175 71.7327 169.152 71.4594 169.104C71.2962 169.078 70.9568 168.983 70.4409 168.819C69.9302 168.65 69.6068 168.566 69.4702 168.566C69.3386 168.566 69.2328 168.605 69.1542 168.684C69.0807 168.763 69.0256 168.927 68.9881 169.175H68.6964V165.493H68.9881C69.1255 166.264 69.3092 166.842 69.5407 167.227C69.7722 167.607 70.1249 167.924 70.5989 168.177C71.0773 168.431 71.6012 168.557 72.1692 168.557C72.8277 168.557 73.3457 168.384 73.7249 168.035C74.1085 167.686 74.301 167.275 74.301 166.799C74.301 166.536 74.2275 166.27 74.0798 166C73.938 165.731 73.7139 165.48 73.4089 165.248C73.2039 165.089 72.6432 164.754 71.7276 164.243C70.812 163.725 70.1595 163.313 69.77 163.007C69.3857 162.701 69.0939 162.363 68.8933 161.994C68.6934 161.624 68.5935 161.217 68.5935 160.775C68.5935 160.004 68.8882 159.341 69.4775 158.787C70.0669 158.227 70.8171 157.948 71.7276 157.948C72.2956 157.948 72.8982 158.087 73.5353 158.367C73.83 158.499 74.0379 158.565 74.1592 158.565C74.2959 158.565 74.4061 158.526 74.4906 158.446C74.5795 158.362 74.6508 158.195 74.7037 157.948H74.9954ZM94.0197 158.193L94.1381 160.711H93.8382C93.7802 160.267 93.7016 159.95 93.6016 159.761C93.4385 159.454 93.2195 159.23 92.9461 159.087C92.6779 158.94 92.3223 158.866 91.8806 158.866H90.3727V167.069C90.3727 167.729 90.444 168.14 90.5858 168.304C90.7857 168.526 91.0936 168.637 91.5095 168.637H91.8806V168.93H87.3415V168.637H87.7207C88.1726 168.637 88.4937 168.499 88.6833 168.225C88.7994 168.056 88.8568 167.671 88.8568 167.069V158.866H87.57C87.0703 158.866 86.7154 158.903 86.5045 158.977C86.2312 159.077 85.9967 159.27 85.802 159.555C85.6073 159.84 85.4919 160.225 85.4552 160.711H85.1546L85.281 158.193H94.0197ZM108.544 157.948C109.933 157.948 111.136 158.478 112.152 159.539C113.173 160.595 113.683 161.914 113.683 163.498C113.683 165.129 113.17 166.483 112.144 167.56C111.117 168.637 109.875 169.175 108.418 169.175C106.944 169.175 105.705 168.65 104.7 167.599C103.7 166.549 103.2 165.19 103.2 163.522C103.2 161.817 103.779 160.426 104.937 159.349C105.942 158.414 107.145 157.948 108.544 157.948ZM108.394 158.526C107.436 158.526 106.668 158.882 106.09 159.594C105.369 160.481 105.008 161.78 105.008 163.49C105.008 165.243 105.381 166.591 106.128 167.536C106.702 168.254 107.46 168.613 108.402 168.613C109.407 168.613 110.236 168.22 110.889 167.433C111.546 166.647 111.876 165.406 111.876 163.712C111.876 161.875 111.515 160.505 110.794 159.603C110.215 158.885 109.415 158.526 108.394 158.526ZM129.013 168.93L124.876 159.895V167.069C124.876 167.729 124.948 168.14 125.09 168.304C125.284 168.526 125.592 168.637 126.013 168.637H126.392V168.93H122.666V168.637H123.045C123.498 168.637 123.819 168.499 124.008 168.225C124.124 168.056 124.182 167.671 124.182 167.069V160.054C124.182 159.578 124.129 159.235 124.024 159.025C123.951 158.871 123.813 158.745 123.613 158.644C123.419 158.539 123.103 158.486 122.666 158.486V158.193H125.697L129.581 166.594L133.402 158.193H136.433V158.486H136.062C135.604 158.486 135.28 158.623 135.091 158.898C134.975 159.067 134.917 159.452 134.917 160.054V167.069C134.917 167.729 134.991 168.14 135.139 168.304C135.333 168.526 135.641 168.637 136.062 168.637H136.433V168.93H131.886V168.637H132.265C132.723 168.637 133.044 168.499 133.228 168.225C133.344 168.056 133.402 167.671 133.402 167.069V159.895L129.273 168.93H129.013ZM160.312 163.173H165.285V160.101C165.285 159.552 165.251 159.19 165.182 159.017C165.13 158.885 165.019 158.771 164.851 158.676C164.625 158.549 164.385 158.486 164.132 158.486H163.753V158.193H168.332V158.486H167.953C167.7 158.486 167.461 158.546 167.235 158.668C167.066 158.753 166.951 158.882 166.887 159.056C166.829 159.225 166.801 159.573 166.801 160.101V167.029C166.801 167.573 166.834 167.932 166.903 168.106C166.956 168.238 167.064 168.352 167.227 168.447C167.458 168.574 167.7 168.637 167.953 168.637H168.332V168.93H163.753V168.637H164.132C164.569 168.637 164.888 168.507 165.088 168.249C165.219 168.08 165.285 167.674 165.285 167.029V163.759H160.312V167.029C160.312 167.573 160.346 167.932 160.414 168.106C160.467 168.238 160.577 168.352 160.746 168.447C160.973 168.574 161.211 168.637 161.464 168.637H161.851V168.93H157.265V168.637H157.644C158.085 168.637 158.407 168.507 158.606 168.249C158.733 168.08 158.796 167.674 158.796 167.029V160.101C158.796 159.552 158.762 159.19 158.694 159.017C158.641 158.885 158.533 158.771 158.37 158.676C158.138 158.549 157.897 158.486 157.644 158.486H157.265V158.193H161.851V158.486H161.464C161.211 158.486 160.973 158.546 160.746 158.668C160.583 158.753 160.47 158.882 160.407 159.056C160.344 159.225 160.312 159.573 160.312 160.101V163.173ZM182.667 157.948C184.056 157.948 185.259 158.478 186.275 159.539C187.295 160.595 187.806 161.914 187.806 163.498C187.806 165.129 187.293 166.483 186.267 167.56C185.241 168.637 183.998 169.175 182.541 169.175C181.068 169.175 179.828 168.65 178.823 167.599C177.822 166.549 177.323 165.19 177.323 163.522C177.323 161.817 177.902 160.426 179.059 159.349C180.064 158.414 181.267 157.948 182.667 157.948ZM182.517 158.526C181.559 158.526 180.791 158.882 180.212 159.594C179.491 160.481 179.131 161.78 179.131 163.49C179.131 165.243 179.505 166.591 180.252 167.536C180.825 168.254 181.583 168.613 182.525 168.613C183.53 168.613 184.359 168.22 185.011 167.433C185.669 166.647 185.998 165.406 185.998 163.712C185.998 161.875 185.638 160.505 184.917 159.603C184.338 158.885 183.538 158.526 182.517 158.526ZM203.136 168.93L198.999 159.895V167.069C198.999 167.729 199.07 168.14 199.212 168.304C199.407 168.526 199.715 168.637 200.136 168.637H200.515V168.93H196.789V168.637H197.168C197.621 168.637 197.942 168.499 198.131 168.225C198.247 168.056 198.305 167.671 198.305 167.069V160.054C198.305 159.578 198.252 159.235 198.147 159.025C198.073 158.871 197.937 158.745 197.736 158.644C197.541 158.539 197.226 158.486 196.789 158.486V158.193H199.82L203.704 166.594L207.525 158.193H210.556V158.486H210.185C209.727 158.486 209.403 158.623 209.214 158.898C209.098 159.067 209.04 159.452 209.04 160.054V167.069C209.04 167.729 209.114 168.14 209.261 168.304C209.456 168.526 209.764 168.637 210.185 168.637H210.556V168.93H206.009V168.637H206.388C206.846 168.637 207.167 168.499 207.351 168.225C207.467 168.056 207.525 167.671 207.525 167.069V159.895L203.396 168.93H203.136ZM222.365 158.779V163.023H224.717C225.328 163.023 225.736 162.93 225.941 162.745C226.215 162.503 226.367 162.075 226.398 161.463H226.691V165.2H226.398C226.325 164.677 226.251 164.343 226.178 164.195C226.083 164.01 225.927 163.865 225.712 163.759C225.496 163.654 225.165 163.601 224.717 163.601H222.365V167.14C222.365 167.615 222.386 167.906 222.428 168.011C222.47 168.112 222.544 168.193 222.649 168.257C222.754 168.315 222.954 168.344 223.249 168.344H225.065C225.669 168.344 226.109 168.302 226.383 168.217C226.656 168.133 226.919 167.966 227.172 167.718C227.499 167.391 227.833 166.898 228.175 166.238H228.491L227.567 168.93H219.318V168.637H219.697C219.949 168.637 220.189 168.576 220.415 168.454C220.584 168.37 220.697 168.243 220.755 168.075C220.818 167.906 220.85 167.56 220.85 167.038V160.062C220.85 159.381 220.781 158.961 220.644 158.803C220.454 158.591 220.139 158.486 219.697 158.486H219.318V158.193H227.567L227.685 160.545H227.377C227.267 159.98 227.144 159.591 227.006 159.381C226.875 159.169 226.678 159.008 226.415 158.898C226.204 158.818 225.833 158.779 225.301 158.779H222.365ZM244.365 157.948V161.661H244.073C243.978 160.948 243.807 160.381 243.56 159.959C243.317 159.536 242.971 159.201 242.518 158.953C242.065 158.705 241.597 158.581 241.113 158.581C240.565 158.581 240.113 158.75 239.755 159.087C239.397 159.42 239.218 159.8 239.218 160.228C239.218 160.555 239.332 160.853 239.558 161.122C239.884 161.518 240.66 162.046 241.887 162.706C242.886 163.245 243.568 163.659 243.931 163.949C244.299 164.234 244.581 164.572 244.775 164.963C244.975 165.353 245.075 165.762 245.075 166.19C245.075 167.003 244.76 167.705 244.128 168.297C243.502 168.883 242.694 169.175 241.704 169.175C241.394 169.175 241.102 169.152 240.829 169.104C240.665 169.078 240.326 168.983 239.81 168.819C239.3 168.65 238.976 168.566 238.839 168.566C238.708 168.566 238.603 168.605 238.523 168.684C238.45 168.763 238.395 168.927 238.358 169.175H238.066V165.493H238.358C238.495 166.264 238.679 166.842 238.911 167.227C239.142 167.607 239.495 167.924 239.968 168.177C240.447 168.431 240.97 168.557 241.539 168.557C242.197 168.557 242.715 168.384 243.094 168.035C243.478 167.686 243.67 167.275 243.67 166.799C243.67 166.536 243.597 166.27 243.449 166C243.307 165.731 243.084 165.48 242.778 165.248C242.573 165.089 242.012 164.754 241.097 164.243C240.181 163.725 239.529 163.313 239.139 163.007C238.755 162.701 238.463 162.363 238.263 161.994C238.063 161.624 237.963 161.217 237.963 160.775C237.963 160.004 238.258 159.341 238.847 158.787C239.437 158.227 240.186 157.948 241.097 157.948C241.665 157.948 242.268 158.087 242.904 158.367C243.199 158.499 243.407 158.565 243.528 158.565C243.665 158.565 243.775 158.526 243.86 158.446C243.949 158.362 244.02 158.195 244.073 157.948H244.365ZM275.893 157.948L276.138 161.598H275.893C275.567 160.505 275.101 159.718 274.495 159.238C273.89 158.758 273.164 158.518 272.317 158.518C271.607 158.518 270.964 158.7 270.391 159.064C269.817 159.423 269.365 159.998 269.033 160.79C268.707 161.582 268.544 162.566 268.544 163.744C268.544 164.715 268.699 165.557 269.01 166.27C269.32 166.982 269.786 167.529 270.407 167.908C271.033 168.288 271.746 168.479 272.546 168.479C273.24 168.479 273.854 168.33 274.385 168.035C274.916 167.734 275.501 167.14 276.138 166.253L276.382 166.412C275.845 167.367 275.219 168.067 274.503 168.51C273.788 168.953 272.938 169.175 271.954 169.175C270.18 169.175 268.807 168.515 267.833 167.195C267.107 166.214 266.744 165.058 266.744 163.727C266.744 162.656 266.984 161.672 267.462 160.775C267.941 159.877 268.599 159.182 269.436 158.691C270.278 158.195 271.196 157.948 272.191 157.948C272.964 157.948 273.727 158.137 274.48 158.518C274.701 158.634 274.859 158.691 274.954 158.691C275.096 158.691 275.219 158.641 275.324 158.541C275.462 158.399 275.559 158.201 275.617 157.948H275.893ZM290.938 157.948C292.328 157.948 293.53 158.478 294.546 159.539C295.567 160.595 296.078 161.914 296.078 163.498C296.078 165.129 295.564 166.483 294.538 167.56C293.511 168.637 292.27 169.175 290.812 169.175C289.338 169.175 288.099 168.65 287.094 167.599C286.094 166.549 285.594 165.19 285.594 163.522C285.594 161.817 286.173 160.426 287.331 159.349C288.336 158.414 289.539 157.948 290.938 157.948ZM290.788 158.526C289.831 158.526 289.062 158.882 288.484 159.594C287.763 160.481 287.402 161.78 287.402 163.49C287.402 165.243 287.775 166.591 288.523 167.536C289.097 168.254 289.854 168.613 290.796 168.613C291.802 168.613 292.63 168.22 293.283 167.433C293.941 166.647 294.27 165.406 294.27 163.712C294.27 161.875 293.909 160.505 293.188 159.603C292.609 158.885 291.81 158.526 290.788 158.526ZM306.813 167.394C307.06 167.394 307.268 167.481 307.437 167.655C307.605 167.824 307.689 168.03 307.689 168.272C307.689 168.515 307.602 168.724 307.429 168.898C307.26 169.067 307.055 169.152 306.813 169.152C306.571 169.152 306.363 169.067 306.189 168.898C306.021 168.724 305.937 168.515 305.937 168.272C305.937 168.025 306.021 167.816 306.189 167.647C306.363 167.478 306.571 167.394 306.813 167.394Z" fill="#3E3E3E"/>
<path d="M60.892 126.178H49.4616L34.9686 106.098C33.8951 106.14 33.0215 106.162 32.3478 106.162C32.0742 106.162 31.7795 106.162 31.4638 106.162C31.148 106.14 30.8217 106.119 30.4849 106.098V118.577C30.4849 121.279 30.7796 122.959 31.369 123.613C32.1689 124.542 33.3688 125.006 34.9686 125.006H36.6421V126.178H18.2969V125.006H19.9072C21.7176 125.006 23.0121 124.415 23.791 123.233C24.233 122.578 24.454 121.026 24.454 118.577V90.8323C24.454 88.1294 24.1594 86.4511 23.57 85.7965C22.749 84.867 21.528 84.4027 19.9072 84.4027H18.2969V83.2307H33.8951C38.4419 83.2307 41.7891 83.569 43.9363 84.2442C46.1041 84.8987 47.9353 86.1238 49.43 87.9186C50.9459 89.6921 51.7036 91.8142 51.7036 94.2842C51.7036 96.9237 50.8401 99.2146 49.114 101.158C47.4092 103.1 44.7571 104.472 41.1571 105.275L49.9987 117.595C52.0195 120.424 53.756 122.303 55.208 123.233C56.6608 124.162 58.5552 124.753 60.892 125.006V126.178ZM30.4849 104.103C30.8848 104.103 31.2322 104.113 31.5269 104.135C31.8216 104.135 32.0637 104.135 32.2531 104.135C36.3369 104.135 39.4104 103.248 41.4731 101.474C43.5571 99.7003 44.5991 97.4411 44.5991 94.6962C44.5991 92.0146 43.757 89.8402 42.0727 88.1722C40.4098 86.4828 38.2001 85.638 35.4422 85.638C34.2213 85.638 32.5689 85.8385 30.4849 86.2395V104.103ZM76.4898 96.3112C80.8687 96.3112 84.3841 97.9792 87.0362 101.316C89.2885 104.166 90.415 107.439 90.415 111.134C90.415 113.731 89.7933 116.36 88.5514 119.02C87.3095 121.68 85.5944 123.687 83.4046 125.038C81.2368 126.389 78.8163 127.065 76.1429 127.065C71.7853 127.065 68.3227 125.323 65.7545 121.839C63.5859 118.905 62.5021 115.611 62.5021 111.957C62.5021 109.297 63.1546 106.658 64.4597 104.04C65.7861 101.4 67.5225 99.4578 69.6697 98.2121C71.8169 96.9451 74.0905 96.3112 76.4898 96.3112ZM75.5109 98.3699C74.3955 98.3699 73.2689 98.7082 72.1329 99.3834C71.0167 100.038 70.1121 101.2 69.4169 102.868C68.7225 104.536 68.3749 106.679 68.3749 109.297C68.3749 113.52 69.2067 117.162 70.8697 120.224C72.5539 123.286 74.7636 124.816 77.5002 124.816C79.5423 124.816 81.2265 123.972 82.5522 122.283C83.8786 120.593 84.5414 117.69 84.5414 113.572C84.5414 108.421 83.4362 104.367 81.2265 101.41C79.7319 99.3834 77.8264 98.3699 75.5109 98.3699ZM93.0354 97.1669H106.518V98.3382H105.855C104.908 98.3382 104.192 98.5497 103.708 98.9721C103.245 99.3731 103.013 99.8802 103.013 100.492C103.013 101.316 103.361 102.456 104.055 103.913L111.096 118.546L117.57 102.519C117.927 101.654 118.106 100.799 118.106 99.9539C118.106 99.5735 118.033 99.289 117.885 99.0989C117.717 98.8667 117.453 98.6868 117.096 98.56C116.738 98.4126 116.106 98.3382 115.201 98.3382V97.1669H124.611V98.3382C123.832 98.423 123.232 98.5917 122.81 98.8453C122.39 99.0989 121.926 99.5735 121.422 100.271C121.232 100.566 120.874 101.379 120.348 102.709L108.571 131.658C107.434 134.465 105.939 136.587 104.087 138.023C102.255 139.459 100.487 140.177 98.7819 140.177C97.54 140.177 96.5193 139.818 95.7191 139.1C94.9196 138.382 94.5191 137.559 94.5191 136.63C94.5191 135.743 94.8035 135.026 95.3722 134.476C95.9616 133.949 96.7611 133.685 97.7715 133.685C98.4667 133.685 99.4138 133.917 100.613 134.381C101.455 134.698 101.981 134.856 102.192 134.856C102.824 134.856 103.508 134.529 104.245 133.874C105.002 133.22 105.76 131.953 106.518 130.074L108.571 125.038L98.1823 103.153C97.8663 102.498 97.3614 101.685 96.6663 100.714C96.1401 99.9753 95.7088 99.4785 95.3722 99.2256C94.888 98.8873 94.109 98.5917 93.0354 98.3382V97.1669ZM143.398 121.997C140.43 124.299 138.567 125.629 137.809 125.988C136.673 126.516 135.462 126.78 134.178 126.78C132.178 126.78 130.526 126.093 129.22 124.721C127.937 123.349 127.294 121.543 127.294 119.306C127.294 117.891 127.61 116.666 128.242 115.631C129.105 114.195 130.599 112.844 132.726 111.577C134.873 110.311 138.43 108.77 143.398 106.953V105.813C143.398 102.921 142.935 100.936 142.008 99.8588C141.104 98.7819 139.777 98.2438 138.03 98.2438C136.704 98.2438 135.651 98.6028 134.873 99.32C134.073 100.038 133.673 100.862 133.673 101.791L133.736 103.628C133.736 104.599 133.483 105.349 132.978 105.876C132.494 106.404 131.852 106.668 131.052 106.668C130.273 106.668 129.631 106.394 129.126 105.845C128.641 105.296 128.4 104.546 128.4 103.596C128.4 101.78 129.326 100.112 131.178 98.5917C133.031 97.0719 135.631 96.3112 138.977 96.3112C141.545 96.3112 143.651 96.7446 145.292 97.6099C146.534 98.2645 147.45 99.289 148.039 100.682C148.418 101.59 148.608 103.448 148.608 106.257V116.107C148.608 118.873 148.661 120.573 148.766 121.206C148.871 121.818 149.039 122.23 149.271 122.441C149.523 122.652 149.808 122.757 150.123 122.757C150.46 122.757 150.755 122.684 151.008 122.536C151.449 122.261 152.302 121.491 153.565 120.224V121.997C151.208 125.165 148.955 126.748 146.808 126.748C145.776 126.748 144.956 126.389 144.345 125.671C143.734 124.954 143.419 123.729 143.398 121.997ZM143.398 119.939V108.885C140.22 110.152 138.167 111.049 137.241 111.577C135.578 112.507 134.389 113.478 133.673 114.492C132.957 115.505 132.599 116.613 132.599 117.817C132.599 119.337 133.052 120.604 133.957 121.617C134.862 122.61 135.904 123.106 137.083 123.106C138.682 123.106 140.788 122.051 143.398 119.939ZM165.69 81.1403V119.622C165.69 121.438 165.816 122.642 166.069 123.233C166.342 123.824 166.753 124.278 167.3 124.595C167.847 124.891 168.869 125.038 170.363 125.038V126.178H156.185V125.038C157.512 125.038 158.417 124.901 158.901 124.627C159.386 124.352 159.764 123.898 160.038 123.264C160.312 122.631 160.448 121.417 160.448 119.622V93.2707C160.448 89.998 160.375 87.9923 160.227 87.253C160.08 86.4931 159.838 85.9756 159.501 85.7014C159.185 85.4272 158.775 85.2894 158.269 85.2894C157.723 85.2894 157.028 85.4589 156.185 85.7965L155.649 84.6879L164.269 81.1403H165.69Z" fill="#3E3E3E"/>
<path d="M212.032 103.406C216.095 104.357 218.947 105.507 220.589 106.858C222.946 108.78 224.126 111.271 224.126 114.333C224.126 117.563 222.831 120.234 220.241 122.346C217.063 124.901 212.442 126.178 206.38 126.178H184.625V125.006C186.603 125.006 187.94 124.827 188.635 124.468C189.351 124.088 189.845 123.602 190.119 123.011C190.413 122.42 190.561 120.963 190.561 118.64V90.7689C190.561 88.4464 190.413 86.9891 190.119 86.398C189.845 85.7862 189.351 85.3004 188.635 84.9415C187.919 84.5825 186.583 84.4027 184.625 84.4027V83.2307H205.148C210.053 83.2307 213.526 83.6744 215.568 84.5611C217.611 85.4272 219.221 86.7363 220.399 88.4884C221.578 90.2198 222.168 92.0677 222.168 94.0313C222.168 96.1003 221.421 97.9483 219.926 99.5735C218.431 101.178 215.8 102.456 212.032 103.406ZM200.539 102.551C203.528 102.551 205.727 102.213 207.138 101.537C208.569 100.862 209.664 99.9119 210.422 98.6868C211.179 97.4625 211.558 95.8999 211.558 93.9996C211.558 92.0994 211.179 90.5471 210.422 89.3434C209.685 88.1191 208.622 87.1896 207.232 86.5565C205.844 85.9233 203.612 85.6167 200.539 85.638V102.551ZM200.539 105.021V118.798L200.507 120.382C200.507 121.523 200.792 122.388 201.36 122.979C201.949 123.55 202.812 123.834 203.949 123.834C205.633 123.834 207.18 123.465 208.59 122.726C210.022 121.966 211.116 120.879 211.874 119.464C212.632 118.028 213.011 116.434 213.011 114.681C213.011 112.675 212.547 110.881 211.622 109.297C210.696 107.693 209.421 106.573 207.801 105.94C206.18 105.307 203.76 105 200.539 105.021ZM240.134 83.2307V120.034C240.134 122.124 240.376 123.465 240.86 124.056C241.344 124.627 242.292 124.954 243.702 125.038V126.178H227.757V125.038C229.062 124.996 230.03 124.616 230.661 123.898C231.082 123.412 231.293 122.124 231.293 120.034V89.3751C231.293 87.3061 231.051 85.9867 230.567 85.4162C230.082 84.825 229.146 84.4874 227.757 84.4027V83.2307H240.134ZM275.088 96.5647V119.749C275.088 122.008 275.299 123.423 275.719 123.993C276.14 124.542 276.993 124.891 278.277 125.038V126.178H266.247V122.219C264.837 123.909 263.426 125.143 262.016 125.925C260.605 126.685 259.026 127.065 257.279 127.065C255.617 127.065 254.132 126.559 252.827 125.545C251.543 124.51 250.68 123.307 250.238 121.934C249.796 120.562 249.575 118.165 249.575 114.744V102.994C249.575 100.756 249.365 99.3627 248.943 98.8136C248.544 98.2645 247.691 97.9055 246.386 97.7367V96.5647H258.416V116.803C258.416 118.915 258.511 120.276 258.7 120.889C258.911 121.501 259.226 121.966 259.647 122.283C260.09 122.6 260.594 122.757 261.163 122.757C261.921 122.757 262.605 122.557 263.216 122.156C264.058 121.607 265.068 120.498 266.247 118.83V102.994C266.247 100.756 266.036 99.3627 265.615 98.8136C265.215 98.2645 264.363 97.9055 263.058 97.7367V96.5647H275.088ZM307.579 110.311H291.381C291.57 114.238 292.612 117.342 294.507 119.622C295.959 121.375 297.706 122.251 299.748 122.251C301.011 122.251 302.158 121.902 303.189 121.206C304.221 120.488 305.326 119.21 306.505 117.374L307.579 118.07C305.979 121.343 304.211 123.665 302.274 125.038C300.337 126.389 298.095 127.065 295.549 127.065C291.17 127.065 287.855 125.376 285.602 121.997C283.792 119.274 282.886 115.895 282.886 111.862C282.886 106.922 284.213 102.994 286.865 100.081C289.538 97.1455 292.664 95.678 296.243 95.678C299.232 95.678 301.821 96.9134 304.01 99.3834C306.221 101.833 307.41 105.475 307.579 110.311ZM299.811 108.189C299.811 104.789 299.622 102.456 299.243 101.189C298.885 99.9222 298.317 98.9617 297.538 98.3072C297.095 97.9269 296.506 97.7367 295.77 97.7367C294.675 97.7367 293.781 98.2755 293.085 99.3517C291.843 101.231 291.223 103.807 291.223 107.08V108.189H299.811Z" fill="#107BC1"/>
<path d="M12.4141 147.923H316.638" stroke="#3E3E3E"/>
<path d="M134.316 49.4651L132.072 47.0975L144.501 46.5902V48.6195L142.437 49.4651L135.007 52.5091L124.477 53.0164L134.316 49.4651Z" fill="#D1D2D4"/>
<path d="M148.406 64.2623L137.695 53.0473L154.017 46.5902L173.739 61.5435L148.406 64.2623Z" fill="#D1D2D4"/>
<path d="M186.559 60.2459L204.975 58.1992L185.182 49.6712L163.324 47.7951L186.559 60.2459Z" fill="#D1D2D4"/>
<path d="M184.952 47.6856L165.328 45.3853V46.5354L184.952 49V47.6856Z" fill="#D1D2D4"/>
<path d="M137.695 37.044L148.624 63.8607L174.069 57.3284L158.529 33.7779L168.946 32.4027L186.535 54.2342L204.977 49.0771L185.51 30.1679L154.601 20.8853L137.695 37.044Z" fill="url(#paint0_radial_1001_2689)"/>
<path d="M134.683 36.6146L123.68 38.1557L134.339 29.5937L131.932 23.7715L142.935 22.744L151.015 16.0656L192.964 28.2237L185.572 29.2512L153.25 19.8329L134.683 36.6146Z" fill="url(#paint1_radial_1001_2689)"/>
<defs>
<radialGradient id="paint0_radial_1001_2689" cx="0" cy="0" r="1" gradientUnits="userSpaceOnUse" gradientTransform="translate(148.283 21.7448) rotate(53.0656) scale(47.7429 80.9645)">
<stop offset="0.07" stop-color="#C9EBFA"/>
<stop offset="0.493765" stop-color="#00AFE3"/>
<stop offset="1" stop-color="#084373"/>
</radialGradient>
<radialGradient id="paint1_radial_1001_2689" cx="0" cy="0" r="1" gradientUnits="userSpaceOnUse" gradientTransform="translate(148.093 21.8878) rotate(52.7737) scale(47.743 81.199)">
<stop offset="0.07" stop-color="#C9EBFA"/>
<stop offset="0.493765" stop-color="#00AFE3"/>
<stop offset="1" stop-color="#084373"/>
</radialGradient>
</defs>
</svg>
