<svg width="299" height="174" viewBox="0 0 299 174" fill="none" xmlns="http://www.w3.org/2000/svg">
<g clip-path="url(#clip0_980_2407)">
<path d="M298.039 42.5228C298.039 19.7828 279.539 -0.00723267 256.799 -0.00723267H74.7991C46.0871 0.0976173 25.8151 28.1618 34.7391 55.4528C26.7317 57.1038 19.3671 61.0188 13.5191 66.7328C5.30906 74.8428 0.789062 86.1828 0.789062 98.6628C0.789062 111.143 5.45906 122.663 13.9291 130.783C19.5891 136.193 29.5591 142.643 44.9291 142.643H74.2091C81.9294 142.646 89.5041 140.544 96.1191 136.563C98.3864 157.806 116.396 173.865 137.759 173.693C153.317 173.758 168.347 168.058 179.949 157.693C186.446 151.864 191.948 145.014 196.239 137.413C201.692 139.999 207.653 141.338 213.689 141.333H258.089C280.67 141.289 298.965 122.994 299.009 100.413L298.039 42.5228Z" fill="#491D55" stroke="#442B2B"/>
<path d="M92.471 124.323L55.125 159.937L92.471 124.323Z" fill="black"/>
<path d="M74.7891 42.9928L119.789 100.993L74.7891 42.9928Z" fill="white"/>
<path d="M74.7891 42.9928L119.789 100.993" stroke="url(#paint0_linear_980_2407)" stroke-width="17.5" stroke-linecap="round"/>
<path d="M73.7891 100.993L118.789 41.9928" stroke="white" stroke-width="17.5" stroke-linecap="round"/>
<path d="M140.789 41.9928L166.789 101.993" stroke="url(#paint1_linear_980_2407)" stroke-width="15.5" stroke-linecap="round"/>
<path d="M161.789 115.993C156.789 123.993 148.404 131.529 136.789 132.993L161.789 115.993ZM192.789 41.9928C182.211 66.0018 169.311 102.84 161.789 115.993L192.789 41.9928Z" fill="white"/>
<path d="M136.789 132.993C148.404 131.529 156.789 123.993 161.789 115.993C169.311 102.84 182.211 66.0018 192.789 41.9928" stroke="white" stroke-width="15.5" stroke-linecap="round"/>
<path d="M257.789 100.993H213.789" stroke="url(#paint2_linear_980_2407)" stroke-width="15" stroke-linecap="round"/>
<path d="M256.789 42.9928H215.789" stroke="url(#paint3_linear_980_2407)" stroke-width="15" stroke-linecap="round"/>
<path d="M213.789 100.993L256.789 42.9928L213.789 100.993Z" fill="white"/>
<path d="M213.789 100.993L256.789 42.9928" stroke="white" stroke-width="15" stroke-linecap="round"/>
<path d="M44.7891 108.993C50.3119 108.993 54.7891 104.516 54.7891 98.9928C54.7891 93.4699 50.3119 88.9928 44.7891 88.9928C39.2662 88.9928 34.7891 93.4699 34.7891 98.9928C34.7891 104.516 39.2662 108.993 44.7891 108.993Z" fill="white"/>
</g>
<defs>
<linearGradient id="paint0_linear_980_2407" x1="86.7891" y1="61.9928" x2="109.789" y2="76.9928" gradientUnits="userSpaceOnUse">
<stop stop-color="#CECECE"/>
<stop offset="0.10714" stop-color="#A5A5A5"/>
<stop offset="0.85714" stop-color="#A5A5A5"/>
<stop offset="1" stop-color="#CECECE"/>
</linearGradient>
<linearGradient id="paint1_linear_980_2407" x1="159.789" y1="89.9928" x2="163.789" y2="91.9928" gradientUnits="userSpaceOnUse">
<stop stop-color="#CECECE"/>
<stop offset="1" stop-color="#A5A5A5"/>
</linearGradient>
<linearGradient id="paint2_linear_980_2407" x1="nan" y1="nan" x2="nan" y2="nan" gradientUnits="userSpaceOnUse">
<stop stop-color="#CECECE"/>
<stop offset="1" stop-color="#A5A5A5"/>
</linearGradient>
<linearGradient id="paint3_linear_980_2407" x1="nan" y1="nan" x2="nan" y2="nan" gradientUnits="userSpaceOnUse">
<stop stop-color="#CECECE"/>
<stop offset="1" stop-color="#A5A5A5"/>
</linearGradient>
<clipPath id="clip0_980_2407">
<rect width="298.21" height="173.7" fill="white" transform="translate(0.789062 -0.00723267)"/>
</clipPath>
</defs>
</svg>
