<svg width="32" height="34" viewBox="0 0 32 34" fill="none" xmlns="http://www.w3.org/2000/svg">
<path d="M20.994 21.1709C19.483 21.0719 18.295 19.8219 18.295 18.2939C18.295 18.2429 18.296 18.1919 18.299 18.1409V18.1479C18.296 18.0999 18.294 18.0439 18.294 17.9869C18.294 16.4619 19.484 15.2159 20.986 15.1249H20.994C22.503 15.2069 23.695 16.4499 23.695 17.9719C23.695 18.0339 23.693 18.0949 23.689 18.1559V18.1479C23.692 18.1979 23.694 18.2569 23.694 18.3159C23.694 19.8389 22.503 21.0839 21.001 21.1699H20.993L20.994 21.1709ZM11.028 21.1709C9.517 21.0719 8.329 19.8219 8.329 18.2939C8.329 18.2429 8.33 18.1919 8.333 18.1409V18.1479C8.33 18.0999 8.328 18.0439 8.328 17.9869C8.328 16.4619 9.518 15.2159 11.02 15.1249H11.028C12.537 15.2069 13.729 16.4499 13.729 17.9719C13.729 18.0339 13.727 18.0949 13.723 18.1559V18.1479C13.726 18.1959 13.728 18.2519 13.728 18.3089C13.728 19.8339 12.538 21.0799 11.036 21.1709H11.028ZM26.395 7.47288C24.632 6.64088 22.584 5.98287 20.44 5.60187L20.291 5.57987C20.286 5.57887 20.28 5.57788 20.274 5.57788C20.239 5.57788 20.209 5.59688 20.193 5.62488C19.959 6.03588 19.705 6.54887 19.476 7.07487L19.433 7.18587C18.403 7.02087 17.215 6.92688 16.005 6.92688C14.795 6.92688 13.607 7.02087 12.448 7.20187L12.577 7.18488C12.307 6.55488 12.049 6.04287 11.764 5.54688L11.805 5.62388C11.788 5.59488 11.757 5.57687 11.722 5.57687C11.717 5.57687 11.711 5.57688 11.706 5.57788C9.413 5.98088 7.365 6.63787 5.451 7.53487L5.602 7.47087C5.585 7.47787 5.571 7.48988 5.562 7.50488C2.708 11.5459 1 16.5739 1 22.0009C1 22.9079 1.048 23.8029 1.141 24.6849L1.132 24.5749C1.135 24.6039 1.15 24.6279 1.171 24.6449C3.311 26.2459 5.799 27.5359 8.484 28.3829L8.66 28.4309C8.668 28.4339 8.678 28.4349 8.688 28.4349C8.72 28.4349 8.748 28.4199 8.765 28.3969C9.3 27.6769 9.809 26.8609 10.25 26.0049L10.297 25.9049C10.303 25.8929 10.307 25.8779 10.307 25.8619C10.307 25.8209 10.281 25.7869 10.245 25.7729H10.244C9.332 25.4209 8.561 25.0459 7.827 24.6159L7.904 24.6579C7.875 24.6409 7.856 24.6099 7.856 24.5749C7.856 24.5439 7.871 24.5159 7.894 24.4989C8.051 24.3809 8.209 24.2589 8.359 24.1349C8.375 24.1219 8.396 24.1139 8.418 24.1139C8.432 24.1139 8.445 24.1169 8.456 24.1219H8.455C10.663 25.1829 13.255 25.8029 15.991 25.8029C18.727 25.8029 21.32 25.1829 23.634 24.0759L23.527 24.1219C23.539 24.1159 23.552 24.1129 23.567 24.1129C23.589 24.1129 23.61 24.1209 23.626 24.1339C23.776 24.2579 23.933 24.3819 24.092 24.4989C24.115 24.5169 24.13 24.5449 24.13 24.5759C24.13 24.6109 24.111 24.6409 24.084 24.6579C23.423 25.0529 22.652 25.4269 21.849 25.7359L21.744 25.7719C21.708 25.7859 21.682 25.8209 21.682 25.8609C21.682 25.8769 21.686 25.8919 21.693 25.9049C22.194 26.8649 22.702 27.6789 23.264 28.4519L23.224 28.3949C23.241 28.4189 23.27 28.4349 23.301 28.4349C23.311 28.4349 23.321 28.4329 23.33 28.4309C26.195 27.5389 28.687 26.2489 30.895 24.5989L30.83 24.6459C30.852 24.6299 30.866 24.6049 30.869 24.5769C30.956 23.7929 31.005 22.8829 31.005 21.9619C31.005 16.5469 29.293 11.5319 26.382 7.42788L26.434 7.50588C26.426 7.48988 26.412 7.47687 26.396 7.46987L26.395 7.47288Z" fill="black"/>
</svg>
