<svg width="33" height="32" viewBox="0 0 33 32" fill="none" xmlns="http://www.w3.org/2000/svg">
<path d="M11.5417 4C7.86033 4 4.875 6.98533 4.875 10.6667V21.3333C4.875 25.0147 7.86033 28 11.5417 28H22.2083C25.8897 28 28.875 25.0147 28.875 21.3333V10.6667C28.875 6.98533 25.8897 4 22.2083 4H11.5417ZM24.875 6.66667C25.611 6.66667 26.2083 7.264 26.2083 8C26.2083 8.736 25.611 9.33333 24.875 9.33333C24.139 9.33333 23.5417 8.736 23.5417 8C23.5417 7.264 24.139 6.66667 24.875 6.66667ZM16.875 9.33333C20.5563 9.33333 23.5417 12.3187 23.5417 16C23.5417 19.6813 20.5563 22.6667 16.875 22.6667C13.1937 22.6667 10.2083 19.6813 10.2083 16C10.2083 12.3187 13.1937 9.33333 16.875 9.33333ZM16.875 12C15.8141 12 14.7967 12.4214 14.0466 13.1716C13.2964 13.9217 12.875 14.9391 12.875 16C12.875 17.0609 13.2964 18.0783 14.0466 18.8284C14.7967 19.5786 15.8141 20 16.875 20C17.9359 20 18.9533 19.5786 19.7034 18.8284C20.4536 18.0783 20.875 17.0609 20.875 16C20.875 14.9391 20.4536 13.9217 19.7034 13.1716C18.9533 12.4214 17.9359 12 16.875 12Z" fill="black"/>
</svg>
