<svg width="30" height="30" viewBox="0 0 30 30" fill="none" xmlns="http://www.w3.org/2000/svg">
<path d="M24.6004 2.82031H5.40039C3.74439 2.82031 2.40039 4.11951 2.40039 5.72031V24.2803C2.40039 25.8811 3.74439 27.1803 5.40039 27.1803H24.6004C26.2564 27.1803 27.6004 25.8811 27.6004 24.2803V5.72031C27.6004 4.11951 26.2564 2.82031 24.6004 2.82031ZM10.2004 12.1003V23.1203H6.60039V12.1003H10.2004ZM6.60039 8.89291C6.60039 8.08091 7.32039 7.46031 8.40039 7.46031C9.48039 7.46031 10.1584 8.08091 10.2004 8.89291C10.2004 9.70491 9.52839 10.3603 8.40039 10.3603C7.32039 10.3603 6.60039 9.70491 6.60039 8.89291ZM23.4004 23.1203H19.8004C19.8004 23.1203 19.8004 17.7495 19.8004 17.3203C19.8004 16.1603 19.2004 15.0003 17.7004 14.9771H17.6524C16.2004 14.9771 15.6004 16.1719 15.6004 17.3203C15.6004 17.8481 15.6004 23.1203 15.6004 23.1203H12.0004V12.1003H15.6004V13.5851C15.6004 13.5851 16.7584 12.1003 19.0864 12.1003C21.4684 12.1003 23.4004 13.6837 23.4004 16.8911V23.1203Z" fill="black"/>
</svg>
