<svg width="46" height="100" viewBox="0 0 46 100" fill="none" xmlns="http://www.w3.org/2000/svg">
<path d="M46 69.8026C46 75.4549 44.4784 80.2168 41.4351 84.0883C38.3919 87.8823 34.3342 90.3213 29.2621 91.4053C28.8719 91.5602 28.6768 91.7925 28.6768 92.1022L28.7939 98.6063C28.7939 98.9934 28.6378 99.3031 28.3257 99.5354C28.0916 99.8451 27.7795 100 27.3893 100H17.9084C17.5182 100 17.1671 99.8451 16.855 99.5354C16.6209 99.3031 16.5038 98.9934 16.5038 98.6063L16.6209 91.8699C16.6209 91.5602 16.4648 91.3666 16.1527 91.2892C11.3147 90.0503 7.45208 87.6113 4.56488 83.9721C1.75573 80.3329 0.351145 75.9582 0.351145 70.8478V67.4797C0.351145 67.0925 0.468193 66.7828 0.70229 66.5505C1.01442 66.2408 1.36556 66.0859 1.75573 66.0859H15.2163C15.6064 66.0859 15.9186 66.2408 16.1527 66.5505C16.4648 66.7828 16.6209 67.0925 16.6209 67.4797V70.0348C16.6209 72.4352 17.2451 74.3709 18.4936 75.842C19.7422 77.3132 21.3028 78.0488 23.1756 78.0488C25.0483 78.0488 26.609 77.3519 27.8575 75.9582C29.106 74.5645 29.7303 72.7449 29.7303 70.4994C29.7303 68.1765 28.95 66.2021 27.3893 64.5761C25.8287 62.8726 22.7854 60.3949 18.2595 57.1429C14.3579 54.3554 11.1976 51.8777 8.77863 49.7096C6.35963 47.5416 4.29177 44.8703 2.57506 41.6957C0.858355 38.5211 0 34.8432 0 30.662C0 25.242 1.4436 20.6736 4.33079 16.957C7.21798 13.2404 11.1586 10.8014 16.1527 9.63995C16.4648 9.56252 16.6209 9.33024 16.6209 8.94309L16.5038 1.39372C16.5038 1.00658 16.6209 0.696862 16.855 0.464577C17.1671 0.154859 17.5182 0 17.9084 0H27.2723C27.6624 0 27.9746 0.154859 28.2086 0.464577C28.5208 0.696862 28.6768 1.00658 28.6768 1.39372L28.5598 8.94309C28.5598 9.33024 28.7159 9.56252 29.028 9.63995C34.1001 10.8014 38.0797 13.3178 40.9669 17.1893C43.9321 21.0608 45.4148 25.7453 45.4148 31.2427V34.0302C45.4148 34.4173 45.2587 34.7658 44.9466 35.0755C44.7125 35.3078 44.4003 35.4239 44.0102 35.4239H30.5496C30.1595 35.4239 29.8083 35.3078 29.4962 35.0755C29.2621 34.7658 29.145 34.4173 29.145 34.0302V30.8943C29.145 28.494 28.5208 26.597 27.2723 25.2033C26.1018 23.7321 24.5411 22.9965 22.5903 22.9965C20.7176 22.9965 19.1959 23.6934 18.0254 25.0871C16.855 26.4034 16.2697 28.2617 16.2697 30.662C16.2697 32.9849 17.011 35.0368 18.4936 36.8177C19.9763 38.5985 22.9025 41.0763 27.2723 44.2509C32.1103 47.8126 35.7388 50.7162 38.1578 52.9617C40.6548 55.1297 42.5666 57.5687 43.8931 60.2787C45.2977 62.9113 46 66.0859 46 69.8026Z" fill="#2E2E2E"/>
</svg>
