<svg width="104" height="100" viewBox="0 0 104 100" fill="none" xmlns="http://www.w3.org/2000/svg">
<path d="M71.3816 97.5887C71.3816 99.0223 72.8261 99.9975 74.1191 99.387C91.7771 91.0494 104 73.0386 104 52.1639C104 23.3546 80.7188 0 52 0C23.2812 0 0 23.3546 0 52.1639C0 73.3854 12.6325 91.6471 30.7655 99.7946C32.3294 100.497 34.0361 99.3076 34.0361 97.5887C34.0361 91.6221 36.817 86.3071 41.1495 82.8768C30.6454 79.4543 23.2635 71.363 23.2635 61.9264C23.2635 58.7627 24.0932 55.7502 25.5921 53.0141C26.2539 51.8062 26.8583 50.561 27.4332 49.3043C24.9386 49.8356 22.4423 49.2798 20.7298 47.5618C17.7661 44.5888 18.2719 39.2613 21.8595 35.6624C25.4471 32.0635 30.7579 31.5561 33.7215 34.5291C34.9046 35.7159 35.5348 37.2779 35.6368 38.9554C36.705 38.2334 37.8509 37.5808 39.0634 37.0066V32.7274C39.0634 32.1654 39.4567 31.6806 40.0052 31.5665L43.329 30.875C43.7355 30.7904 44.068 30.4981 44.2048 30.1048L50.2778 12.6503C50.4434 12.1743 50.891 11.8554 51.3936 11.8554H53.306C53.8086 11.8554 54.2562 12.1743 54.4218 12.6503L60.4947 30.1048C60.6316 30.4981 60.964 30.7904 61.3705 30.875L64.6943 31.5665C65.2428 31.6806 65.6361 32.1654 65.6361 32.7274V37.1135C65.6361 37.1934 65.6282 37.2719 65.6128 37.3479C66.5788 37.8398 67.4992 38.3825 68.3681 38.9711C68.4671 37.2877 69.0975 35.7196 70.2843 34.5291C73.2479 31.5561 78.5587 32.0635 82.1463 35.6624C85.7338 39.2613 86.2396 44.5888 83.276 47.5618C81.6281 49.2149 79.2545 49.7919 76.855 49.3598C77.2772 50.0776 77.7155 50.7852 78.1758 51.4763C80.259 54.604 81.4362 58.158 81.4362 61.9264C81.4362 71.2118 74.2889 79.1947 64.0527 82.7087C68.5082 86.1321 71.3816 91.5238 71.3816 97.5887Z" fill="#2E2E2E"/>
<path d="M32.6184 97.5887C32.6184 99.0223 31.1739 99.9975 29.8808 99.387C12.2229 91.0494 0 73.0386 0 52.1639C0 23.3546 23.2812 0 52 0C80.7188 0 104 23.3546 104 52.1639C104 73.3854 91.3675 91.6471 73.2345 99.7946C71.6706 100.497 69.9639 99.3076 69.9639 97.5887C69.9639 91.6221 67.183 86.3071 62.8505 82.8768C73.3546 79.4543 80.7365 71.363 80.7365 61.9264C80.7365 58.7627 79.9068 55.7502 78.4079 53.0141C77.7461 51.8062 77.1417 50.561 76.5668 49.3043C79.0614 49.8356 81.5577 49.2798 83.2702 47.5618C86.2339 44.5888 85.7281 39.2613 82.1405 35.6624C78.5529 32.0635 73.2421 31.5561 70.2785 34.5291C69.0954 35.7159 68.4652 37.2779 68.3632 38.9554C67.295 38.2334 66.1491 37.5808 64.9366 37.0066V32.7274C64.9366 32.1654 64.5433 31.6806 63.9948 31.5665L60.671 30.875C60.2645 30.7904 59.932 30.4981 59.7952 30.1048L53.7222 12.6503C53.5566 12.1743 53.109 11.8554 52.6064 11.8554H50.694C50.1914 11.8554 49.7438 12.1743 49.5782 12.6503L43.5053 30.1048C43.3684 30.4981 43.036 30.7904 42.6294 30.875L39.3057 31.5665C38.7571 31.6806 38.3639 32.1654 38.3639 32.7274V37.1135C38.3639 37.1934 38.3718 37.2719 38.3872 37.3479C37.4212 37.8398 36.5008 38.3825 35.6319 38.9711C35.5329 37.2877 34.9025 35.7196 33.7157 34.5291C30.7521 31.5561 25.4413 32.0635 21.8537 35.6624C18.2661 39.2613 17.7604 44.5888 20.724 47.5618C22.3719 49.2149 24.7455 49.7919 27.145 49.3598C26.7228 50.0776 26.2845 50.7852 25.8242 51.4763C23.741 54.604 22.5638 58.158 22.5638 61.9264C22.5638 71.2118 29.7111 79.1947 39.9473 82.7087C35.4917 86.1321 32.6184 91.5238 32.6184 97.5887Z" fill="#2E2E2E"/>
</svg>
