<svg width="147" height="100" viewBox="0 0 147 100" fill="none" xmlns="http://www.w3.org/2000/svg">
<path d="M126.187 51.8349C126.187 59.7518 119.769 66.1697 111.852 66.1697C103.935 66.1697 97.5172 59.7518 97.5172 51.8349C97.5172 43.9179 103.935 37.5 111.852 37.5C119.769 37.5 126.187 43.9179 126.187 51.8349Z" fill="#2E2E2E"/>
<path d="M146.829 85.6651C146.829 89.4266 146.829 100 146.829 100C146.829 100 121.991 100 111.852 100C102.305 100 76.875 100 76.875 100C76.875 100 76.875 89.6692 76.875 85.6651C76.875 77.7482 92.5348 71.3303 111.852 71.3303C131.169 71.3303 146.829 77.7482 146.829 85.6651Z" fill="#2E2E2E"/>
<path d="M49.3119 51.8349C49.3119 59.7518 42.894 66.1697 34.9771 66.1697C27.0601 66.1697 20.6422 59.7518 20.6422 51.8349C20.6422 43.9179 27.0601 37.5 34.9771 37.5C42.894 37.5 49.3119 43.9179 49.3119 51.8349Z" fill="#2E2E2E"/>
<path d="M69.9541 85.6651C69.9541 89.4266 69.9541 100 69.9541 100C69.9541 100 45.1164 100 34.9771 100C25.4298 100 0 100 0 100C0 100 3.39036e-05 89.6692 3.39036e-05 85.6651C3.39036e-05 77.7482 15.6598 71.3303 34.9771 71.3303C54.2944 71.3303 69.9541 77.7482 69.9541 85.6651Z" fill="#2E2E2E"/>
<path d="M73.8308 28.6697C80.3187 28.6697 85.5782 22.2518 85.5782 14.3349C85.5782 6.41794 80.3187 0 73.8308 0C67.3429 0 62.0835 6.41794 62.0835 14.3349C62.0835 22.2518 67.3429 28.6697 73.8308 28.6697Z" fill="#2E2E2E"/>
<path d="M98.75 41.0763C96.3317 43.8718 94.8233 47.8276 94.8233 52.2133C94.8233 56.1713 96.0519 59.7792 98.069 62.5H49.3083C51.3254 59.7792 52.554 56.1713 52.554 52.2133C52.554 47.9023 51.0965 44.0066 48.75 41.2201C53.6397 36.8131 63.0387 33.8303 73.8308 33.8303C84.5052 33.8303 93.8167 36.7483 98.75 41.0763Z" fill="#2E2E2E"/>
</svg>
