<svg width="354" height="319" viewBox="0 0 354 319" fill="none" xmlns="http://www.w3.org/2000/svg">
<path d="M173.907 299.022L162.56 344.281C162.56 344.281 138.732 325.456 128.705 312.899C122.434 305.045 113.466 293.551 107.628 286.042C104.19 281.62 104.283 275.409 107.841 271.083L109.452 269.125C113.362 264.371 120.236 263.346 125.362 266.754L173.907 299.022Z" fill="#CE8139"/>
<path d="M17.9098 223.956L19.565 189.066C19.5977 188.378 20.3012 187.928 20.94 188.187L71.0546 208.533C71.9375 208.892 71.8662 210.165 70.9488 210.423L19.1791 224.966C18.5222 225.15 17.8775 224.637 17.9098 223.956Z" fill="#F8DC5E"/>
<path d="M39.9488 168.561L56.9417 145.032C57.3968 144.402 58.3653 144.51 58.6715 145.224L78.2786 190.974C78.6618 191.868 77.672 192.727 76.8405 192.223L40.2405 170.001C39.7416 169.698 39.6071 169.034 39.9488 168.561Z" fill="#F8DC5E"/>
<path d="M34.1633 243.654L51.2076 267.254C51.6286 267.837 52.5087 267.798 52.8771 267.181L77.9122 225.226C78.4104 224.391 77.5448 223.408 76.6536 223.797L34.5742 242.152C33.9895 242.407 33.7898 243.137 34.1633 243.654Z" fill="#F8DC5E"/>
<path fill-rule="evenodd" clip-rule="evenodd" d="M242.746 325.253C241.29 320.887 240.074 316.346 238.922 311.813C234.103 292.842 218.059 278.28 198.017 276.787C179 275.371 161.799 286.126 153.618 302.649C151.622 306.68 149.549 310.687 147.265 314.455C142.916 321.63 140.142 329.944 139.473 338.93C138.891 346.743 139.959 354.29 142.376 361.216L123.332 417.157C121.291 423.154 124.262 429.705 130.119 432.119L138.842 435.714C143.958 437.823 149.853 436.16 153.113 431.688L179.461 395.536C182.35 396.266 185.339 396.756 188.409 396.985C193.581 397.37 198.636 396.985 203.466 395.925L220.679 433.794C222.927 438.74 228.217 441.558 233.576 440.665L239.617 439.658C245.698 438.645 250.022 433.188 249.618 427.037L244.719 352.326C245.035 350.522 245.265 348.685 245.404 346.818C245.966 339.275 244.99 331.98 242.746 325.253Z" fill="#EBA34A"/>
<path fill-rule="evenodd" clip-rule="evenodd" d="M238.925 311.813C240.077 316.346 241.293 320.887 242.749 325.253C244.993 331.98 245.969 339.275 245.407 346.818C243.181 376.703 217.664 399.163 188.412 396.985C159.159 394.807 137.25 368.814 139.475 338.93C140.145 329.944 142.919 321.63 147.268 314.455C149.552 310.687 151.625 306.68 153.621 302.649C161.802 286.126 179.002 275.371 198.02 276.787C198.562 276.828 199.102 276.878 199.638 276.937C187.33 276.637 176.154 285.969 170.598 299.835C169.199 303.326 167.748 306.798 166.16 310.067C165.518 311.388 164.584 313.161 163.506 315.207C159.505 322.802 153.516 334.172 153.063 340.26C151.148 365.967 157.37 379.018 192.682 380.398C227.994 381.778 229.806 362.208 231.721 336.501C232.204 330.012 231.649 323.758 230.234 318.01C229.315 314.28 228.561 310.395 227.85 306.517C225.431 293.331 217.99 282.748 208.067 278.703C223.298 283.473 234.943 296.138 238.925 311.813Z" fill="#CE8139"/>
<path fill-rule="evenodd" clip-rule="evenodd" d="M96.9082 140.565C88.5309 126.055 95.9787 106.072 113.543 95.9313C131.108 85.7904 152.138 89.3321 160.515 103.842C163.029 108.197 164.118 113.044 163.936 117.971C177.767 112.334 193.477 109.15 210.135 109.15C240.425 109.15 267.585 119.681 286.008 136.337C287.327 127.587 291.879 119.991 299.301 115.706C313.811 107.328 333.795 114.776 343.935 132.341C354.076 149.905 350.535 170.935 336.025 179.312C329.403 183.135 321.641 183.663 314.195 181.436C314.677 182.351 315.166 183.261 315.663 184.166C321.655 195.069 324.972 207.074 324.972 219.681C324.972 269.627 272.915 310.116 208.699 310.116C144.483 310.116 92.4261 269.627 92.4261 219.681C92.4261 204.664 97.1321 190.502 105.46 178.038C109.833 171.493 113.707 164.576 117.409 157.629C118.046 156.435 118.718 155.255 119.427 154.091C109.889 153.174 101.499 148.517 96.9082 140.565Z" fill="#EBA34A"/>
<path d="M103.524 103.846C99.994 112.285 100.018 121.442 104.429 129.081C112.806 143.591 133.836 147.133 151.4 136.992C155.246 134.772 158.606 132.08 161.422 129.077C158.247 136.666 152.199 143.674 143.882 148.476C126.318 158.616 105.288 155.075 96.9107 140.565C90.3675 129.232 93.4785 114.559 103.524 103.846Z" fill="#CE8139"/>
<path d="M336.021 162.086C321.511 170.463 301.528 163.016 291.387 145.451C289.115 141.517 287.53 137.408 286.601 133.307C284.379 142.367 285.825 153.043 291.387 162.677C301.528 180.241 321.511 187.689 336.021 179.312C347.281 172.811 351.935 158.691 348.717 144.484C346.888 151.942 342.572 158.304 336.021 162.086Z" fill="#CE8139"/>
<path fill-rule="evenodd" clip-rule="evenodd" d="M305.127 162.302C308.378 169.693 311.771 177.09 315.66 184.166C321.652 195.069 324.969 207.074 324.969 219.681C324.969 269.626 272.911 310.115 208.696 310.115C144.48 310.115 92.4226 269.626 92.4226 219.681C92.4226 204.664 97.1287 190.502 105.456 178.038C109.829 171.493 113.703 164.576 117.405 157.629C132.581 129.154 168.383 109.15 210.131 109.15C254.128 109.15 291.521 131.367 305.127 162.302ZM289.991 170.416C292.72 176.54 295.569 182.669 298.833 188.532C303.864 197.565 306.648 207.512 306.648 217.958C306.648 259.342 262.946 292.89 209.036 292.89C155.127 292.89 111.424 259.342 111.424 217.958C111.424 205.515 114.498 189.54 121.489 179.212C125.161 173.789 128.413 168.058 131.521 162.302C144.261 138.709 178.891 119.198 210.131 116.327C247.067 116.327 263.968 112.02 289.991 170.416Z" fill="#C87D37"/>
<path d="M284.095 288.374C271.697 283.566 262.668 268.769 262.668 251.261C262.668 229.856 276.165 212.504 292.813 212.504C306.998 212.504 318.895 222.809 322.105 239.777C319.235 249.826 315.541 256.567 309.186 265.616C300.959 277.334 291.783 284.269 284.095 288.374Z" fill="#E58841"/>
<path d="M94.7551 237.234C96.7359 245.519 96.7359 248.39 108.22 265.616C116.893 277.525 127.87 285.813 135.494 290.019C150.374 285.733 161.332 269.338 161.332 251.261C161.332 229.856 145.908 212.504 126.881 212.504C112.251 212.504 99.7512 222.762 94.7551 237.234Z" fill="#E58841"/>
<g filter="url(#filter0_i_1377_1968)">
<path d="M143.698 161.371C148.465 168.173 160.224 168.153 169.962 161.327C179.7 154.501 185.733 145.036 178.961 136.653C171.378 127.811 162.435 129.872 152.698 136.697C142.96 143.523 138.931 154.57 143.698 161.371Z" fill="#FFC669"/>
</g>
<g filter="url(#filter1_i_1377_1968)">
<path d="M129.66 180.206C132.624 182.732 135.689 181.157 139.004 178.001C142.319 174.845 144.007 171.506 141.664 168.776C139.004 165.676 135.635 167.825 132.32 170.981C129.005 174.137 126.695 177.68 129.66 180.206Z" fill="#FFC669"/>
</g>
<path d="M149.845 183.795C159.415 192.407 171.664 201.594 172.812 203.891" stroke="#763B0E" stroke-width="4" stroke-linecap="round"/>
<path d="M148.747 186.665C157.36 202.455 170.566 201.922 171.715 203.891" stroke="#763B0E" stroke-opacity="0.36" stroke-width="4" stroke-linecap="round"/>
<path d="M150.14 187.243C167.989 189.462 172.338 201.943 174.591 202.289" stroke="#763B0E" stroke-opacity="0.36" stroke-width="4" stroke-linecap="round"/>
<path d="M148.41 205.327C158.458 208.197 172.812 203.891 172.812 203.891" stroke="#763B0E" stroke-width="4" stroke-linecap="round"/>
<path d="M257.506 198.149C243.152 199.584 232.816 204.465 231.668 206.762" stroke="#763B0E" stroke-width="4" stroke-linecap="round"/>
<path d="M257.846 195.278C241.896 196.713 230.413 201.594 229.137 203.891" stroke="#763B0E" stroke-opacity="0.36" stroke-width="4" stroke-linecap="round"/>
<path d="M257.506 212.504C247.458 215.374 231.668 206.762 231.668 206.762" stroke="#763B0E" stroke-width="4" stroke-linecap="round"/>
<path d="M263.25 170.875C250.809 175.66 225.066 186.091 221.621 189.536" stroke="#763B0E" stroke-width="4" stroke-linecap="round"/>
<path d="M152.718 162.262C162.288 170.875 181.715 188.675 182.863 190.971" stroke="#763B0E" stroke-width="4" stroke-linecap="round"/>
<path d="M210.131 246.955C223.929 245.7 239.919 235.677 243.734 233.168C244.082 232.939 244.544 233.175 244.51 233.59C243.925 240.733 239.231 284.041 211.566 281.406C184.164 278.796 175.74 246.534 174.434 240.684C174.347 240.294 174.734 239.982 175.104 240.131C179.105 241.737 196.276 248.214 210.131 246.955Z" fill="#B75B2E" stroke="#763B0E" stroke-width="4"/>
<path d="M214.779 256.285C229.133 250.543 240.617 253.414 240.617 253.414C240.617 253.414 234.875 275.664 220.521 279.97C206.166 284.277 191.811 272.793 191.811 272.793C191.811 272.793 200.424 262.027 214.779 256.285Z" fill="#D5763F" stroke="#763B0E" stroke-width="4"/>
<g filter="url(#filter2_i_1377_1968)">
<path d="M232.722 308.84C231.325 308.817 244.588 353.179 244.588 353.179C244.588 353.179 270.794 332.264 281.746 318.216C288.865 309.084 299.161 295.549 305.495 287.194C308.832 282.793 308.717 276.689 305.231 272.404L302.241 268.728C298.052 263.579 290.485 262.802 285.337 266.992C268.304 280.857 233.773 308.856 232.722 308.84Z" fill="#EBA34A"/>
</g>
<path d="M248.579 9.22462C248.504 8.77271 248.133 8.42656 247.678 8.38363L228.02 6.5274C227.573 6.48516 227.155 6.74725 227 7.16801L198.933 83.0216C198.8 83.3814 198.472 83.6308 198.09 83.6631L180.133 85.1832C179.671 85.2224 179.3 85.576 179.237 86.0366L175.863 110.908C175.811 111.293 175.978 111.67 176.311 111.872C179.474 113.792 196.587 123.514 225.285 127.705C253.984 131.895 273.019 127.451 276.569 126.511C276.944 126.412 277.205 126.098 277.257 125.713L280.631 100.842C280.694 100.381 280.431 99.9348 279.997 99.7649L263.091 93.1414C262.759 93.0116 262.52 92.7162 262.461 92.3651L248.579 9.22462Z" fill="#E6CB54"/>
<path d="M246.965 77.5692V8.72064L227.593 7.2312C227.593 7.2312 204.399 74.5896 202.687 80.3858C200.974 86.1821 212.372 77.5692 224.826 77.5692C237.279 77.5692 246.965 83.3111 246.965 77.5692Z" fill="#F8DC5E"/>
<path d="M209.277 87.6176L206.51 117.762L196.824 116.327L198.208 86.1821C198.208 86.1821 205.386 87.6176 209.277 87.6176Z" fill="#F8DC5E"/>
<path d="M192.668 86.1821L189.901 117.762L176.064 112.021L180.215 86.1821H192.668Z" fill="#F8DC5E"/>
<path d="M228.645 89.0532C228.645 89.0532 225.262 117.763 225.57 123.504C225.877 129.246 223.11 127.811 210.656 124.94C198.203 122.069 189.901 117.763 189.901 117.763V113.456C189.901 117.763 196.819 117.763 196.819 114.892C196.819 112.021 206.505 112.021 206.505 116.327C206.505 120.634 213.424 120.634 214.808 117.763C216.191 114.892 216.191 87.6177 216.191 87.6177C216.191 87.6177 224.32 89.0532 228.645 89.0532Z" fill="#F8DC5E"/>
<path d="M245.254 90.4886L242.738 123.504H231.417L232.675 89.0531C232.675 89.0531 241.323 90.4886 245.254 90.4886Z" fill="#F8DC5E"/>
<path d="M264.621 93.3595L260.47 117.762L252.168 120.633V91.924C252.168 91.924 260.297 93.3595 264.621 93.3595Z" fill="#F8DC5E"/>
<path d="M198.992 212.504C216.625 212.504 227.961 223.987 229.137 223.987C198.992 236.907 184.526 228.615 176.024 222.552C167.523 216.488 181.359 212.504 198.992 212.504Z" fill="#CE8139"/>
<path d="M185.049 223.987C185.368 227.869 192.237 231.165 197.979 231.165C203.721 231.165 206.261 231.644 210.48 228.294C213.351 226.014 209.044 223.987 200.431 222.551C191.818 221.116 184.731 220.105 185.049 223.987Z" fill="#763B0E"/>
<path d="M316.689 180.805C326.43 183.896 347.773 176.955 349.506 156.459C351.673 130.84 306.435 73.5305 283.691 133.553" stroke="#512B10" stroke-width="4"/>
<path d="M163.113 114.892C161.509 95.1703 137.57 78.8137 108.568 95.5055C72.3152 116.37 81.9845 154.853 116.589 152.071" stroke="#512B10" stroke-width="4"/>
<path d="M307.061 269.13C328.216 248.14 348.89 191.85 274.559 127.45L277.444 97.3967L260.135 93.3559M252.923 91.6722L260.135 93.3559M260.135 93.3559L250.038 11.53L220.775 6.11853L196.254 81.9674L170.292 84.8297V112.021C132.79 126.332 71.9537 179.256 106.571 260.543C140.034 300.614 211.865 317.788 235.615 300.614" stroke="#512B10" stroke-width="4" stroke-linecap="round" stroke-linejoin="round"/>
<path d="M106.36 261.31C95.8335 266.095 89.1346 286.287 146.553 328.777M159.473 300.068C151.817 313.465 137.941 345.142 143.682 364.664" stroke="#512B10" stroke-width="4" stroke-linecap="round"/>
<path d="M235.555 300.067C258.522 279.971 305.031 247.816 307.328 279.971C307.328 286.191 288.573 318.441 244.934 351.744M243.499 346.002C245.413 375.19 251.058 424.379 249.909 427.824C248.474 432.131 246.37 445.05 227.709 437.872C212.78 432.131 209.047 404.857 203.974 393.373" stroke="#512B10" stroke-width="4" stroke-linecap="round"/>
<path d="M288.665 166.569C299.192 180.445 316.226 216.81 300.149 251.262" stroke="#512B10" stroke-opacity="0.36" stroke-width="4"/>
<path d="M128.661 166.569C115.071 180.754 101.388 212.504 114.307 235.472" stroke="#512B10" stroke-opacity="0.36" stroke-width="4" stroke-linecap="round"/>
<path d="M120.051 248.391C126.271 259.874 149.334 284.851 191.824 292.89" stroke="black" stroke-opacity="0.36" stroke-width="4"/>
<path d="M76.9286 183.176C78.1687 179.426 58.3282 137.859 56.7781 137.859C55.2281 137.859 38.4877 161.612 39.7277 162.862C41.2778 164.424 75.3786 187.864 76.9286 183.176Z" stroke="#512B10" stroke-width="4"/>
<path d="M65.0393 208.116C63.6097 204.087 18.8971 181.955 17.5647 182.994C16.2324 184.034 17.6473 215.516 19.5451 215.75C21.9172 216.043 66.8263 213.153 65.0393 208.116Z" stroke="#512B10" stroke-width="4"/>
<path d="M79.1858 228.626C75.5052 226.45 27.0017 238.131 26.6458 239.784C26.2899 241.436 47.5595 264.689 49.166 263.652C51.1741 262.356 83.7864 231.346 79.1858 228.626Z" stroke="#512B10" stroke-width="4"/>
<defs>
<filter id="filter0_i_1377_1968" x="141.695" y="130.773" width="40.1484" height="35.6859" filterUnits="userSpaceOnUse" color-interpolation-filters="sRGB">
<feFlood flood-opacity="0" result="BackgroundImageFix"/>
<feBlend mode="normal" in="SourceGraphic" in2="BackgroundImageFix" result="shape"/>
<feColorMatrix in="SourceAlpha" type="matrix" values="0 0 0 0 0 0 0 0 0 0 0 0 0 0 0 0 0 0 127 0" result="hardAlpha"/>
<feOffset dy="-0.5"/>
<feComposite in2="hardAlpha" operator="arithmetic" k2="-1" k3="1"/>
<feColorMatrix type="matrix" values="0 0 0 0 0.317647 0 0 0 0 0.168627 0 0 0 0 0.0627451 0 0 0 0.46 0"/>
<feBlend mode="normal" in2="shape" result="effect1_innerShadow_1377_1968"/>
</filter>
<filter id="filter1_i_1377_1968" x="128.293" y="167.267" width="14.4609" height="14.192" filterUnits="userSpaceOnUse" color-interpolation-filters="sRGB">
<feFlood flood-opacity="0" result="BackgroundImageFix"/>
<feBlend mode="normal" in="SourceGraphic" in2="BackgroundImageFix" result="shape"/>
<feColorMatrix in="SourceAlpha" type="matrix" values="0 0 0 0 0 0 0 0 0 0 0 0 0 0 0 0 0 0 127 0" result="hardAlpha"/>
<feOffset dy="-0.5"/>
<feComposite in2="hardAlpha" operator="arithmetic" k2="-1" k3="1"/>
<feColorMatrix type="matrix" values="0 0 0 0 0.317647 0 0 0 0 0.168627 0 0 0 0 0.0627451 0 0 0 0.46 0"/>
<feBlend mode="normal" in2="shape" result="effect1_innerShadow_1377_1968"/>
</filter>
<filter id="filter2_i_1377_1968" x="232.617" y="264.295" width="75.3047" height="88.8839" filterUnits="userSpaceOnUse" color-interpolation-filters="sRGB">
<feFlood flood-opacity="0" result="BackgroundImageFix"/>
<feBlend mode="normal" in="SourceGraphic" in2="BackgroundImageFix" result="shape"/>
<feColorMatrix in="SourceAlpha" type="matrix" values="0 0 0 0 0 0 0 0 0 0 0 0 0 0 0 0 0 0 127 0" result="hardAlpha"/>
<feOffset dy="-6"/>
<feComposite in2="hardAlpha" operator="arithmetic" k2="-1" k3="1"/>
<feColorMatrix type="matrix" values="0 0 0 0 0.807843 0 0 0 0 0.505882 0 0 0 0 0.223529 0 0 0 1 0"/>
<feBlend mode="normal" in2="shape" result="effect1_innerShadow_1377_1968"/>
</filter>
</defs>
</svg>
